<svg xmlns="http://www.w3.org/2000/svg" xmlns:xlink="http://www.w3.org/1999/xlink" width="145.25" height="125.77" viewBox="0 0 145.25 125.77"><defs><linearGradient id="a" x1="25.66" y1="-42.85" x2="29.88" y2="176.95" gradientUnits="userSpaceOnUse"><stop offset="0" stop-color="#a1ff00"/><stop offset="1" stop-color="#516606"/></linearGradient><linearGradient id="b" x1="118.02" y1="-13.72" x2="118.02" y2="137.64" xlink:href="#a"/><linearGradient id="c" x1="72.63" y1="-22.17" x2="72.63" y2="65.21" gradientUnits="userSpaceOnUse"><stop offset="0" stop-color="#ffe700"/><stop offset="1" stop-color="#ff6101"/></linearGradient><linearGradient id="d" x1="72.63" y1="135.64" x2="72.63" y2="58.47" xlink:href="#c"/><linearGradient id="e" x1="54.47" y1="-87.83" x2="54.47" y2="102.49" xlink:href="#a"/><linearGradient id="f" x1="90.78" y1="-25.93" x2="90.78" y2="121.63" xlink:href="#a"/></defs><path d="M54.47,14.88A73.07,73.07,0,0,0,36.31,0a72.61,72.61,0,0,0,0,125.77,72.63,72.63,0,0,0,18.16-14.88,72.53,72.53,0,0,1,0-96Z" style="fill:url(#a)"/><path d="M108.94,0A73.43,73.43,0,0,0,90.78,14.88a72.53,72.53,0,0,1,0,96,73,73,0,0,0,18.16,14.88A72.61,72.61,0,0,0,108.94,0Z" style="fill:url(#b)"/><path d="M90.78,14.88A73.2,73.2,0,0,0,72.63,0,73.07,73.07,0,0,0,54.47,14.88a72.25,72.25,0,0,1,18.16,48A72.29,72.29,0,0,1,90.78,14.88Z" style="fill:url(#c)"/><path d="M54.47,110.89a72.63,72.63,0,0,0,18.16,14.88,72.76,72.76,0,0,0,18.15-14.88,72.29,72.29,0,0,1-18.15-48A72.24,72.24,0,0,1,54.47,110.89Z" style="fill:url(#d)"/><path d="M54.47,14.88a72.53,72.53,0,0,0,0,96,72.24,72.24,0,0,0,18.16-48A72.25,72.25,0,0,0,54.47,14.88Z" style="fill:url(#e)"/><path d="M90.78,14.88a72.56,72.56,0,0,0,0,96,72.53,72.53,0,0,0,0-96Z" style="fill:url(#f)"/></svg>